<?xml version="1.0" standalone="no"?>
<!DOCTYPE svg PUBLIC "-//W3C//DTD SVG 20010904//EN"
 "http://www.w3.org/TR/2001/REC-SVG-20010904/DTD/svg10.dtd">
<svg version="1.0" xmlns="http://www.w3.org/2000/svg"
 width="1200.000000pt" height="1200.000000pt" viewBox="0 0 1200.000000 1200.000000"
 preserveAspectRatio="xMidYMid meet">

<g transform="translate(0.000000,1200.000000) scale(0.100000,-0.100000)"
fill="#000000" stroke="none">
<path d="M541 7130 c1 -3 42 -43 93 -89 50 -47 124 -116 164 -155 l74 -70
-101 -560 c-56 -309 -104 -571 -107 -583 l-4 -23 159 0 c143 0 160 2 165 18 3
9 42 220 86 467 45 248 104 571 131 719 27 148 46 272 44 275 -7 6 -705 8
-704 1z"/>
<path d="M3182 6923 c-23 -115 -42 -214 -42 -220 0 -20 -14 -15 -39 11 -40 43
-117 69 -206 69 -198 2 -318 -92 -384 -302 -28 -89 -76 -315 -91 -428 -15
-111 -9 -184 20 -250 45 -102 112 -144 241 -151 104 -5 167 12 236 65 25 19
43 28 40 20 -3 -9 -9 -32 -13 -51 l-6 -36 155 0 154 0 22 103 c11 56 79 389
150 740 l128 637 -161 0 -161 0 -43 -207z m-177 -438 c62 -25 69 -89 31 -277
-42 -205 -86 -268 -189 -268 -38 0 -53 5 -72 25 -21 21 -25 33 -25 88 0 75 32
245 60 321 22 59 63 103 106 116 42 12 51 12 89 -5z"/>
<path d="M4900 7118 c-1 -7 -16 -83 -34 -168 l-32 -155 -50 -5 -49 -5 -21
-105 c-12 -58 -24 -122 -28 -142 l-7 -38 46 0 c36 0 45 -3 45 -18 0 -9 -23
-127 -50 -261 -70 -339 -68 -406 18 -494 56 -57 121 -77 255 -77 l112 0 24
125 c12 69 25 135 28 145 5 19 0 20 -66 20 -111 0 -110 -6 -50 290 27 135 51
251 54 258 3 8 30 12 84 12 75 0 81 1 86 23 21 89 51 257 47 262 -3 3 -41 5
-84 5 -71 0 -79 2 -74 18 6 19 66 306 66 316 0 3 -72 6 -160 6 -121 0 -160 -3
-160 -12z"/>
<path d="M8142 7083 c-6 -27 -25 -124 -43 -218 -18 -93 -34 -172 -35 -174 -2
-2 -18 9 -36 24 -119 101 -342 89 -471 -25 -81 -71 -148 -271 -203 -605 -30
-188 0 -312 94 -382 53 -40 98 -53 183 -53 85 0 146 19 210 65 38 27 49 32 46
18 -3 -10 -8 -33 -12 -50 l-7 -33 154 0 153 0 144 723 c78 397 145 730 148
740 4 16 -8 17 -155 17 l-160 0 -10 -47z m-175 -618 c30 -34 30 -110 3 -246
-28 -136 -56 -207 -98 -247 -32 -31 -38 -33 -95 -30 -53 3 -63 6 -81 31 -17
23 -21 42 -19 90 2 95 40 265 74 335 26 53 38 67 73 83 55 26 113 20 143 -16z"/>
<path d="M1949 6780 c-57 -10 -132 -42 -176 -76 l-34 -26 7 29 c3 15 8 36 11
46 4 16 -8 17 -150 17 -152 0 -155 0 -160 -22 -3 -13 -51 -255 -107 -538 -56
-283 -104 -525 -107 -537 l-5 -23 160 0 c144 0 161 2 166 18 3 9 34 168 71
352 36 184 73 352 82 373 33 77 121 121 187 93 42 -17 59 -47 58 -101 0 -33
-124 -682 -137 -722 -3 -10 33 -13 158 -13 l163 0 78 396 c87 435 90 480 47
580 -50 116 -177 178 -312 154z"/>
<path d="M4005 6775 c-101 -18 -179 -59 -250 -130 -95 -96 -145 -208 -184
-415 -31 -165 -34 -217 -17 -300 26 -122 88 -196 211 -251 60 -27 213 -37 296
-20 196 42 332 198 393 450 53 218 59 372 18 464 -47 105 -160 186 -289 207
-71 12 -90 12 -178 -5z m148 -315 c32 -36 35 -83 12 -211 -42 -228 -94 -309
-197 -309 -94 0 -117 54 -92 212 22 140 58 251 96 293 54 62 132 68 181 15z"/>
<path d="M5530 6788 c0 -2 -51 -256 -113 -566 l-112 -562 160 0 160 0 68 348
c38 191 76 361 84 377 36 70 88 105 156 105 35 0 51 -6 75 -28 l30 -28 83 75
c46 41 109 97 139 124 l55 50 -42 37 c-51 45 -107 63 -198 62 -84 -1 -170 -30
-222 -75 l-35 -31 7 57 7 57 -151 0 c-83 0 -151 -1 -151 -2z"/>
<path d="M6725 6779 c-100 -9 -193 -40 -262 -86 -29 -19 -55 -39 -58 -43 -3
-4 30 -55 73 -112 l77 -103 48 32 c79 53 172 68 242 39 51 -22 65 -63 49 -145
l-6 -31 -152 0 c-217 0 -327 -31 -412 -117 -82 -82 -116 -238 -78 -359 26 -84
108 -166 189 -189 104 -31 247 -4 312 57 30 28 36 20 24 -31 l-9 -41 153 0
c138 0 154 2 159 18 3 9 37 179 76 377 92 462 92 528 -2 624 -87 89 -237 128
-423 110z m115 -678 c0 -34 -31 -106 -58 -134 -92 -97 -242 -77 -242 32 0 29
43 85 80 103 26 13 59 18 128 18 83 0 92 -2 92 -19z"/>
<path d="M8631 6738 c-6 -29 -54 -282 -106 -562 -53 -280 -98 -513 -101 -518
-3 -4 69 -8 159 -8 l164 0 6 38 c6 45 196 1047 204 1080 l5 22 -160 0 -161 0
-10 -52z"/>
<path d="M9724 6780 c-58 -8 -134 -40 -180 -75 -18 -14 -35 -25 -37 -25 -3 0
-1 17 4 38 5 20 9 40 9 45 0 4 -70 7 -155 7 -141 0 -155 -2 -155 -17 0 -10
-49 -262 -108 -561 l-108 -542 160 2 160 3 71 355 c39 195 80 372 90 393 9 21
29 46 43 57 32 26 94 42 127 34 36 -9 75 -59 75 -98 0 -18 -31 -191 -70 -386
-38 -195 -70 -355 -70 -357 0 -2 71 -3 159 -3 l158 0 77 383 c80 402 88 474
61 564 -37 126 -167 202 -311 183z"/>
<path d="M10586 6779 c-124 -18 -227 -92 -278 -199 -56 -120 -128 -495 -114
-600 20 -155 157 -261 321 -248 62 5 132 34 173 71 12 11 22 16 22 11 0 -28
-33 -132 -52 -162 -62 -101 -224 -128 -319 -53 l-35 29 -106 -92 c-59 -50
-107 -95 -107 -101 -1 -15 68 -69 124 -97 69 -35 139 -48 253 -48 177 0 297
46 397 151 107 112 120 156 251 823 l49 250 148 135 148 136 -272 3 c-150 1
-274 1 -276 -2 -2 -2 -6 -21 -9 -42 -10 -69 -12 -70 -47 -36 -63 61 -160 86
-271 71z m202 -314 c17 -21 22 -38 22 -83 -1 -110 -44 -268 -88 -321 -23 -28
-36 -34 -78 -38 -63 -6 -91 7 -110 53 -17 40 -13 93 18 225 24 107 63 174 110
188 50 15 100 6 126 -24z"/>
<path d="M1261 5345 c-7 -41 -15 -75 -19 -75 -4 0 -16 7 -26 15 -28 21 -75 19
-114 -5 -45 -28 -72 -89 -72 -167 0 -52 4 -66 26 -92 21 -25 33 -31 65 -31 22
0 51 7 64 16 23 15 25 15 25 0 0 -9 8 -16 20 -16 11 0 20 3 20 8 0 4 16 97 35
207 19 110 35 203 35 208 0 4 -10 7 -23 7 -21 0 -24 -7 -36 -75z m-41 -103
c21 -17 22 -20 9 -96 -15 -88 -38 -116 -95 -116 -27 0 -36 6 -49 30 -18 35
-19 60 -3 112 23 77 88 110 138 70z"/>
<path d="M3050 5401 c0 -10 -3 -39 -6 -65 -5 -37 -4 -46 8 -46 10 0 19 18 27
57 14 73 14 73 -9 73 -13 0 -20 -7 -20 -19z"/>
<path d="M6920 5418 c0 -2 -16 -93 -35 -203 -19 -110 -35 -206 -35 -212 0 -7
9 -13 20 -13 23 0 21 -8 60 220 16 96 32 183 34 193 3 12 -2 17 -20 17 -13 0
-24 -1 -24 -2z"/>
<path d="M9660 5398 c0 -20 -52 -328 -65 -385 -4 -19 -1 -23 19 -23 25 0 36
21 36 71 0 22 44 79 53 68 2 -2 20 -34 41 -71 30 -56 41 -68 62 -68 25 0 25 0
-23 89 -26 49 -46 91 -43 93 3 2 33 29 67 61 l62 57 -32 0 c-25 0 -46 -13 -96
-61 -35 -33 -65 -58 -67 -56 -2 2 5 52 16 112 25 136 25 135 -5 135 -19 0 -25
-5 -25 -22z"/>
<path d="M2640 5395 c-17 -20 -5 -45 20 -45 11 0 23 7 26 15 6 15 -11 45 -26
45 -4 0 -13 -7 -20 -15z"/>
<path d="M5705 5401 c-48 -12 -74 -29 -90 -61 -36 -69 -13 -111 86 -157 45
-21 81 -45 87 -57 22 -48 -26 -96 -95 -96 -48 0 -83 26 -83 60 0 15 -7 20 -25
20 -19 0 -25 -5 -25 -23 0 -54 60 -97 135 -97 92 0 145 42 145 115 0 52 -32
85 -113 115 -80 30 -97 66 -54 116 42 49 147 29 147 -28 0 -13 7 -18 25 -18
29 0 32 17 10 59 -21 41 -93 66 -150 52z"/>
<path d="M7062 5401 c-20 -12 -10 -46 13 -46 14 0 20 7 20 24 0 27 -13 35 -33
22z"/>
<path d="M625 5388 c-5 -17 -65 -374 -65 -387 0 -6 11 -11 25 -11 19 0 25 5
25 23 0 12 15 104 34 205 l33 182 -24 0 c-13 0 -25 -6 -28 -12z"/>
<path d="M3586 5383 c-6 -20 -66 -370 -66 -384 0 -5 54 -9 120 -9 113 0 120 1
120 20 0 19 -7 20 -95 20 -94 0 -95 0 -90 23 3 12 18 95 34 185 l27 162 -22 0
c-13 0 -25 -8 -28 -17z"/>
<path d="M7825 5343 c-4 -31 -19 -124 -34 -206 l-27 -148 25 3 c25 3 27 7 51
155 14 84 29 152 33 150 4 -1 39 -70 76 -152 61 -133 72 -150 95 -153 14 -2
26 0 26 4 0 10 58 350 65 382 4 18 1 22 -19 22 -26 0 -21 17 -68 -247 -6 -35
-14 -63 -17 -63 -3 0 -37 70 -76 155 -64 144 -71 155 -96 155 -25 0 -27 -4
-34 -57z"/>
<path d="M5304 5343 c-10 -49 -13 -53 -38 -53 -13 0 -26 -7 -30 -15 -4 -11 2
-15 24 -15 17 0 30 -1 30 -2 0 -2 -7 -41 -15 -88 -26 -150 -20 -180 42 -180
26 0 33 4 33 20 0 13 -7 20 -20 20 -30 0 -31 14 -12 125 16 93 19 100 42 104
37 5 45 25 12 31 -24 5 -27 9 -24 43 3 32 1 37 -17 37 -14 0 -22 -8 -27 -27z"/>
<path d="M8546 5358 c-3 -7 -7 -25 -10 -40 -5 -21 -12 -28 -30 -28 -13 0 -26
-7 -30 -15 -4 -11 1 -15 18 -15 12 0 25 -2 28 -5 3 -3 -1 -36 -8 -73 -17 -85
-18 -164 -2 -180 7 -7 27 -12 45 -12 26 0 33 4 33 20 0 13 -7 20 -19 20 -11 0
-23 5 -26 10 -4 6 1 58 11 115 17 105 17 105 45 105 19 0 29 5 29 15 0 9 -10
15 -26 15 -25 0 -25 2 -19 40 6 36 5 40 -14 40 -12 0 -23 -6 -25 -12z"/>
<path d="M821 5279 c-27 -16 -32 -17 -28 -5 5 12 0 16 -18 16 -14 0 -25 -4
-25 -8 0 -7 -15 -96 -45 -264 -4 -24 -1 -28 19 -28 22 0 24 7 42 111 16 98 21
113 47 135 35 29 68 31 91 5 17 -19 17 -25 -1 -135 l-20 -116 23 0 c24 0 26 3
44 120 16 102 13 147 -10 170 -26 26 -76 26 -119 -1z"/>
<path d="M1431 5278 c-53 -36 -74 -71 -79 -132 -6 -71 3 -102 35 -132 20 -18
37 -24 72 -24 102 0 156 75 152 207 -3 82 -109 130 -180 81z m113 -37 c48 -53
18 -178 -48 -206 -49 -21 -82 -4 -98 47 -32 106 82 230 146 159z"/>
<path d="M1783 5280 c-27 -16 -33 -17 -33 -5 0 8 -9 15 -19 15 -22 0 -21 2
-51 -170 -24 -141 -25 -132 3 -128 20 3 24 13 39 103 20 114 30 138 65 154 37
17 61 13 77 -12 15 -22 13 -45 -18 -219 -5 -24 -2 -28 18 -28 21 0 24 7 39 93
25 135 23 171 -9 196 -33 26 -70 27 -111 1z"/>
<path d="M2072 5283 c-62 -30 -103 -136 -82 -212 14 -54 51 -81 109 -81 46 0
111 29 111 50 0 19 -31 23 -50 5 -10 -9 -35 -17 -56 -18 -44 -1 -74 29 -74 74
l0 29 99 0 c97 0 99 0 105 25 10 38 -11 101 -41 124 -31 25 -76 26 -121 4z
m100 -40 c10 -9 18 -29 18 -45 l0 -28 -75 0 c-41 0 -75 2 -75 5 0 15 32 65 47
74 27 16 64 13 85 -6z"/>
<path d="M2363 5285 c-35 -15 -53 -41 -53 -79 0 -35 30 -63 82 -76 54 -15 68
-26 68 -56 0 -28 -26 -44 -74 -44 -27 0 -40 6 -52 25 -20 30 -54 34 -54 6 0
-34 56 -71 106 -71 71 0 124 40 124 94 0 27 -41 64 -85 76 -46 13 -75 33 -75
51 0 5 9 18 20 29 28 28 74 26 98 -5 11 -14 29 -25 41 -25 25 0 25 1 9 35 -23
50 -91 68 -155 40z"/>
<path d="M2804 5286 c-29 -13 -64 -50 -64 -68 0 -18 44 -6 62 17 40 51 129 20
114 -40 -6 -23 -11 -25 -62 -25 -60 0 -104 -18 -128 -52 -40 -56 1 -128 72
-128 21 0 47 7 58 15 25 19 34 19 34 0 0 -9 9 -15 25 -15 22 0 25 4 25 38 0
20 5 71 11 113 7 42 9 88 5 102 -12 50 -88 71 -152 43z m96 -183 c-10 -44 -44
-72 -85 -73 -37 0 -55 16 -55 46 0 35 45 64 100 64 l48 0 -8 -37z"/>
<path d="M3163 5286 c-35 -16 -53 -43 -53 -80 0 -35 30 -63 82 -76 54 -15 68
-26 68 -56 0 -30 -30 -46 -78 -42 -27 2 -40 9 -47 26 -12 28 -55 31 -55 3 0
-34 56 -71 106 -71 144 0 171 131 37 171 -54 15 -74 37 -62 66 15 41 101 43
114 3 4 -13 15 -20 31 -20 22 0 24 3 19 23 -17 57 -96 83 -162 53z"/>
<path d="M3914 5286 c-29 -13 -64 -50 -64 -68 0 -18 44 -6 62 17 40 52 127 18
111 -43 -5 -19 -12 -22 -60 -22 -59 0 -103 -18 -127 -52 -40 -56 1 -128 72
-128 21 0 47 7 58 15 25 19 34 19 34 0 0 -9 9 -15 24 -15 18 0 24 5 23 23 -1
12 5 63 12 114 8 50 11 103 7 117 -12 49 -88 69 -152 42z m96 -183 c-10 -44
-44 -72 -85 -73 -37 0 -55 16 -55 46 0 35 45 64 100 64 l48 0 -8 -37z"/>
<path d="M4244 5285 c-22 -17 -38 -20 -29 -5 3 6 -4 10 -17 10 -22 0 -24 -7
-49 -150 l-25 -150 23 0 c13 0 23 1 23 3 0 2 9 53 20 113 21 119 37 144 91
144 24 0 29 4 29 25 0 19 -5 25 -23 25 -13 0 -32 -7 -43 -15z"/>
<path d="M4420 5293 c-51 -19 -92 -94 -93 -172 0 -60 21 -114 48 -125 29 -11
75 -7 105 9 34 18 35 16 16 -29 -27 -65 -100 -87 -145 -45 -19 18 -25 19 -32
8 -13 -21 -6 -32 32 -51 44 -23 86 -23 126 2 50 30 62 58 88 206 13 77 27 151
29 167 5 23 2 27 -18 27 -14 0 -26 -5 -28 -12 -3 -8 -11 -7 -28 5 -24 17 -70
21 -100 10z m101 -54 c11 -11 18 -28 15 -37 -2 -9 -8 -41 -11 -71 -9 -67 -38
-101 -88 -101 -19 0 -40 6 -46 14 -33 40 -19 149 24 192 30 30 77 32 106 3z"/>
<path d="M4730 5281 c-92 -48 -117 -212 -43 -271 35 -27 105 -27 149 1 61 37
36 61 -30 30 -66 -33 -116 -5 -116 63 l0 26 100 0 100 0 0 56 c0 48 -4 59 -29
85 -35 35 -79 38 -131 10z m104 -43 c9 -12 16 -33 16 -45 0 -22 -4 -23 -75
-23 -86 0 -93 9 -46 59 36 38 82 42 105 9z"/>
<path d="M5023 5285 c-37 -16 -53 -42 -53 -84 0 -35 25 -56 85 -72 49 -13 65
-26 65 -50 0 -29 -28 -49 -70 -49 -31 0 -43 5 -56 25 -29 44 -66 28 -48 -20
16 -41 118 -59 173 -31 26 14 51 53 51 80 0 27 -41 64 -85 76 -46 13 -75 33
-75 51 0 5 9 18 20 29 28 28 74 26 98 -5 11 -14 29 -25 40 -25 19 0 20 3 10
30 -18 54 -88 74 -155 45z"/>
<path d="M6330 5285 c-30 -17 -44 -19 -35 -5 3 6 -4 10 -17 10 -22 0 -24 -7
-57 -197 -18 -109 -34 -202 -34 -208 -1 -5 8 -11 20 -13 18 -3 23 4 32 48 6
28 11 62 11 75 0 29 7 30 34 10 26 -20 96 -19 124 1 52 36 86 158 62 228 -20
62 -82 84 -140 51z m80 -45 c38 -38 21 -150 -29 -194 -29 -26 -79 -25 -101 2
-16 19 -16 27 -4 94 11 55 20 78 40 96 31 27 68 28 94 2z"/>
<path d="M6646 5285 c-33 -18 -39 -19 -31 -5 3 6 -4 10 -17 10 -22 0 -24 -7
-57 -197 -19 -109 -34 -202 -35 -208 0 -5 9 -11 20 -13 20 -3 23 4 35 70 7 40
13 75 15 77 1 1 13 -4 26 -13 29 -21 92 -20 124 1 70 46 96 225 39 273 -24 20
-87 23 -119 5z m78 -38 c23 -17 32 -93 17 -139 -24 -73 -99 -105 -141 -62 -17
18 -17 24 -6 92 9 50 20 80 36 97 26 28 66 32 94 12z"/>
<path d="M7220 5281 c-90 -47 -116 -213 -43 -270 35 -28 104 -28 149 0 61 37
36 61 -30 30 -66 -33 -116 -5 -116 63 l0 26 100 0 100 0 0 56 c0 48 -4 59 -29
85 -35 35 -79 38 -131 10z m104 -43 c9 -12 16 -33 16 -45 0 -22 -4 -23 -75
-23 -86 0 -93 9 -46 59 36 38 82 42 105 9z"/>
<path d="M7544 5285 c-22 -17 -38 -20 -29 -5 3 6 -4 10 -18 10 -22 0 -24 -6
-46 -132 -12 -73 -25 -141 -27 -150 -4 -14 1 -18 19 -18 26 0 29 10 53 170 9
58 37 90 81 90 29 0 33 3 33 25 0 19 -5 25 -23 25 -13 0 -32 -7 -43 -15z"/>
<path d="M8260 5281 c-90 -47 -116 -213 -43 -270 34 -28 106 -28 151 -1 17 11
32 24 32 30 0 19 -31 23 -50 5 -10 -9 -35 -17 -56 -18 -44 -1 -74 29 -74 74
l0 29 100 0 100 0 0 56 c0 48 -4 59 -29 85 -35 35 -79 38 -131 10z m102 -38
c10 -9 18 -29 18 -45 l0 -28 -75 0 c-86 0 -93 9 -46 59 33 35 74 41 103 14z"/>
<path d="M9174 5281 c-51 -31 -77 -77 -82 -145 -7 -97 31 -146 114 -146 72 0
125 49 144 134 28 127 -75 219 -176 157z m115 -47 c43 -55 11 -172 -53 -199
-73 -31 -120 30 -96 123 23 94 103 134 149 76z"/>
<path d="M9520 5283 c-17 -12 -25 -13 -28 -5 -3 10 -42 18 -42 9 0 -1 -11 -67
-25 -145 -14 -78 -25 -145 -25 -147 0 -3 10 -5 23 -5 22 0 24 7 41 110 20 120
36 146 91 152 22 2 31 9 33 26 3 17 -1 22 -20 22 -13 0 -34 -8 -48 -17z"/>
<path d="M2620 5283 c0 -5 -11 -71 -25 -148 -14 -77 -25 -141 -25 -142 0 -2
11 -3 25 -3 14 0 25 6 25 13 0 14 37 230 45 265 5 18 1 22 -20 22 -14 0 -25
-3 -25 -7z"/>
<path d="M5931 5228 c-25 -136 -25 -181 -1 -210 17 -23 30 -28 64 -28 23 0 52
7 64 16 20 14 22 14 22 0 0 -9 9 -16 20 -16 11 0 20 1 20 3 0 1 11 67 25 145
14 78 25 145 25 147 0 3 -10 5 -23 5 -21 0 -24 -7 -41 -110 -21 -123 -39 -150
-101 -150 -57 0 -59 28 -21 233 5 23 2 27 -18 27 -21 0 -25 -7 -35 -62z"/>
<path d="M7036 5278 c-7 -20 -46 -256 -46 -273 0 -25 39 -18 45 8 9 44 45 252
45 264 0 17 -39 17 -44 1z"/>
<path d="M8680 5273 c0 -20 17 -176 25 -240 5 -32 11 -43 24 -43 13 0 32 31
70 110 53 111 71 132 71 83 0 -16 5 -65 12 -111 10 -74 13 -83 31 -80 14 2 37
41 88 151 67 147 67 148 42 145 -23 -3 -32 -16 -71 -110 -24 -60 -48 -108 -52
-108 -4 0 -10 35 -13 78 -9 117 -16 142 -39 142 -15 0 -32 -26 -73 -112 l-53
-113 -6 55 c-3 30 -8 81 -11 113 -5 48 -10 57 -26 57 -11 0 -19 -7 -19 -17z"/>
</g>
</svg>
